<svg xmlns="http://www.w3.org/2000/svg" viewBox="0 0 500 500"><g id="freepik--Floor--inject-55"><ellipse id="freepik--floor--inject-55" cx="250" cy="303.75" rx="238.19" ry="137.52" style="fill:#f5f5f5"></ellipse></g><g id="freepik--Shadows--inject-55"><polygon id="freepik--Shadow--inject-55" points="44.28 254.47 330.55 419.75 463.88 342.77 177.62 177.5 44.28 254.47" style="fill:#e0e0e0"></polygon><ellipse id="freepik--shadow--inject-55" cx="68.82" cy="315.93" rx="19.48" ry="11.25" style="fill:#e0e0e0"></ellipse><ellipse id="freepik--shadow--inject-55" cx="358.03" cy="213.43" rx="45.49" ry="26.26" style="fill:#e0e0e0"></ellipse></g><g id="freepik--Ball--inject-55"><g id="freepik--ball--inject-55"><circle cx="358.03" cy="165.91" r="57.34" transform="translate(-12.45 301.76) rotate(-45)" style="fill:#3AA476"></circle><circle cx="358.03" cy="165.91" r="57.34" transform="translate(-12.45 301.76) rotate(-45)" style="opacity:0.30000000000000004"></circle><path d="M343.5,117.35c-5.36,2.62-10.65,7.45-10.14,13.39a12.22,12.22,0,0,0,4.76,8.09,36.3,36.3,0,0,0,8.41,4.65l30.18,13.33a36.16,36.16,0,0,0,9.2,3.1,12.07,12.07,0,0,0,9.24-2.07c4.1-3.3,4.5-9.42,3.51-14.59C393.89,118.39,365.56,106.55,343.5,117.35Z" style="fill:#fff;opacity:0.1"></path><g style="opacity:0.2"><path d="M331.61,121.43c.55,2.76,2.9,5,6.61,6.23a27.27,27.27,0,0,0,24.18-4.86c2.94-2.58,4.25-5.53,3.7-8.3-.51-2.53-2.54-4.59-5.72-5.88-1.23-.05-2.46-.06-3.7,0a17.78,17.78,0,0,1,2.49.63c3.35,1.13,5.47,3.08,5.95,5.48s-.72,5-3.38,7.35c-5.65,5-16.06,7.07-23.2,4.66-3.36-1.13-5.47-3.08-6-5.48s.71-5,3.37-7.35a17.78,17.78,0,0,1,2.68-1.93c-1.23.43-2.43.92-3.61,1.43C332.29,115.91,331.07,118.75,331.61,121.43Z"></path><path d="M305.61,189.13l-.09-.2h0Z"></path><path d="M409.48,140.57c.09.18.17.36.26.53Z"></path><path d="M306.3,190.67l.41.81Z"></path><path d="M412.43,184a39.75,39.75,0,0,1-8.73,10.54C385,211,350.58,217.93,327,210a39.53,39.53,0,0,1-12.13-6.37c1.05,1.21,2.15,2.36,3.29,3.47a45.2,45.2,0,0,0,8.52,3.84c12,4,26.65,4.3,40.71,1.47s27.52-8.74,37-17.07a45.15,45.15,0,0,0,6.37-6.83C411.36,187,411.92,185.54,412.43,184Z"></path><path d="M402.33,177.37c-19.68,17.33-55.9,24.6-80.73,16.21-9.44-3.18-16.12-8.22-19.35-14.48.26,1.13.55,2.25.88,3.35h0c3.75,5.15,9.94,9.31,18.15,12.08,12.57,4.24,28,4.53,42.81,1.56s28.94-9.2,38.9-18c6.51-5.73,10.61-12,12.07-18.17-.12-1.13-.28-2.27-.47-3.4C414,163.57,409.8,170.8,402.33,177.37Z"></path><path d="M415.31,168.84c0,.23,0,.46-.05.69C415.28,169.3,415.29,169.07,415.31,168.84Z"></path><path d="M391.72,119.52l.52.37Z"></path><path d="M321.36,159.93c10.49,3.54,23.38,3.78,35.73,1.3s24.16-7.67,32.47-15c6.86-6,10.52-12.76,10.58-19.26-.34-.37-.69-.72-1-1.07.36,6.53-3.18,13.4-10.2,19.58C372.51,159.91,342.36,166,321.68,159c-8.87-3-14.79-7.95-17-14.12-.18.46-.37.92-.54,1.39C306.73,152.22,312.69,157,321.36,159.93Z"></path><path d="M301,160.48c2.51,7.28,9.41,13.1,19.71,16.57,11.71,4,26.11,4.23,39.9,1.46s27-8.57,36.26-16.75c8.17-7.18,12.27-15.22,11.77-22.91-.42-.78-.85-1.55-1.31-2.31,1.6,8.06-2.35,16.75-11.12,24.48-18.33,16.12-52.06,22.89-75.18,15.09-11.08-3.74-18.08-10.22-19.72-18.26-.13.87-.23,1.74-.32,2.62Z"></path><path d="M300.75,163.22c0-.37,0-.74.07-1.11C300.79,162.48,300.77,162.85,300.75,163.22Z"></path><path d="M390.1,118.38l-.5-.34Z"></path><path d="M326.28,142.78c8,2.71,17.87,2.89,27.31,1s18.46-5.86,24.81-11.45c5.76-5.08,8.57-10.78,8.05-16.2-.37-.21-.72-.42-1.09-.62.83,5.31-1.85,11-7.62,16.07-12.47,11-35.41,15.57-51.14,10.26-7.28-2.46-12-6.66-13.23-11.87-.26.32-.52.66-.77,1C314.21,136.15,319,140.33,326.28,142.78Z"></path><path d="M308.69,136.7l.4-.66Z"></path><path d="M310.47,133.89c-.14.2-.27.41-.41.62Z"></path></g><path d="M343.42,198.74c-34.16-13.12-39.26-38.31-36.56-58.63h0a57.34,57.34,0,1,0,108.21,32C412.43,189.67,377.55,211.85,343.42,198.74Z" style="opacity:0.1"></path></g></g><g id="freepik--Mat--inject-55"><g id="freepik--mat--inject-55"><polygon points="44.28 247.28 330.55 412.56 463.88 335.58 177.62 170.3 44.28 247.28" style="fill:#3AA476"></polygon><polygon points="44.28 247.28 330.55 412.56 463.88 335.58 177.62 170.3 44.28 247.28" style="fill:#fff;opacity:0.8"></polygon><path d="M343,355.5c3,.56,6.31.52,9,2a39.84,39.84,0,0,1,5,4,26.09,26.09,0,0,0,18,7c6.32.15,20.93-4,21-12.23.07-5.12-5.64-8-10.38-10A168.38,168.38,0,0,1,317,294.47c-6.69-8.55-12.85-18-22.19-23.56-5.95-3.53-12.79-5.19-19.47-7a382,382,0,0,1-103.27-45.1,129.21,129.21,0,0,0,12.2-37.06c-7.78-2.72-15.31,4-23,7-6,2.35-12,2.27-18,1.34l-25.48,14.71c1.06,3.74,2.76,7.38,3.92,11.11,1.78,5.68,2,12.71-2.47,16.68-2.55,2.28-6.08,3-9.44,3.69l-14,2.78c-4,.79-8.62,2.06-10.18,5.83-1.91,4.61,2.15,9.53,6.41,12.14,7.93,4.87,17.38,6.44,26.12,9.63,20.49,7.47,36.53,23.6,55.61,34.16a112.25,112.25,0,0,0,42.95,13.44c15.57,1.59,31.44-.09,46.79,2.9,12.07,2.35,24.35,5.65,36.18,9.21A75.1,75.1,0,0,1,318,334.3a45,45,0,0,1,7.89,6.2c2.29,2.29,3.85,5.26,5.86,7.81C334.84,352.32,338.24,354.6,343,355.5Z" style="opacity:0.05"></path><polygon points="44.28 247.28 44.28 249.88 330.55 415.15 330.55 412.56 44.28 247.28" style="fill:#3AA476"></polygon><polygon points="44.28 247.28 44.28 249.88 330.55 415.15 330.55 412.56 44.28 247.28" style="fill:#fff;opacity:0.6000000000000001"></polygon><polygon points="330.55 412.56 463.88 335.58 463.88 338.18 330.55 415.15 330.55 412.56" style="fill:#3AA476"></polygon><polygon points="330.55 412.56 463.88 335.58 463.88 338.18 330.55 415.15 330.55 412.56" style="fill:#fff;opacity:0.45"></polygon></g></g><g id="freepik--Bottle--inject-55"><g id="freepik--Water--inject-55"><path d="M82.53,291.9A31.74,31.74,0,0,0,80.25,286c-.09-.21-.2-.42-.31-.64A12.05,12.05,0,0,1,80.11,274c.06-.12.13-.24.2-.36A12.81,12.81,0,0,0,82.07,267a7.88,7.88,0,0,0-3.82-6.33,14.49,14.49,0,0,0-1.77-.86,3,3,0,0,1-1.92-2.8v-3.47l-11.09,0,0,3.46a3,3,0,0,1-1.94,2.8,13.2,13.2,0,0,0-1.78.84,7.9,7.9,0,0,0-3.87,6.3,12.92,12.92,0,0,0,1.71,6.7c.06.12.13.23.19.34a12.11,12.11,0,0,1,.09,11.4c-.11.21-.21.42-.31.63a31.75,31.75,0,0,0-2.33,5.87,27.93,27.93,0,0,0-.54,6l-.06,16.14c0,2.09,1.36,4.19,4.12,5.79a19.32,19.32,0,0,0,8,2.34,24.41,24.41,0,0,0,4,0,19.59,19.59,0,0,0,8-2.28c2.77-1.58,4.16-3.67,4.17-5.76l0-11.67c0-1.45.07-3,.07-4.49A27.08,27.08,0,0,0,82.53,291.9Z" style="fill:#3AA476"></path><path d="M82.53,291.9A31.74,31.74,0,0,0,80.25,286c-.09-.21-.2-.42-.31-.64A12.05,12.05,0,0,1,80.11,274c.06-.12.13-.24.2-.36A12.81,12.81,0,0,0,82.07,267a7.88,7.88,0,0,0-3.82-6.33,14.49,14.49,0,0,0-1.77-.86,3,3,0,0,1-1.92-2.8v-3.47l-11.09,0,0,3.46a3,3,0,0,1-1.94,2.8,13.2,13.2,0,0,0-1.78.84,7.9,7.9,0,0,0-3.87,6.3,12.92,12.92,0,0,0,1.71,6.7c.06.12.13.23.19.34a12.11,12.11,0,0,1,.09,11.4c-.11.21-.21.42-.31.63a31.75,31.75,0,0,0-2.33,5.87,27.93,27.93,0,0,0-.54,6l-.06,16.14c0,2.09,1.36,4.19,4.12,5.79a19.32,19.32,0,0,0,8,2.34,24.41,24.41,0,0,0,4,0,19.59,19.59,0,0,0,8-2.28c2.77-1.58,4.16-3.67,4.17-5.76l0-11.67c0-1.45.07-3,.07-4.49A27.08,27.08,0,0,0,82.53,291.9Z" style="opacity:0.30000000000000004"></path><path d="M80.11,274c.06-.12.13-.24.2-.36A12.87,12.87,0,0,0,82,268a10.1,10.1,0,0,1-1,2.29,21.73,21.73,0,0,1-5,5.22c-1.9,1.55-4,3.31-4.24,5.75s1.43,4.51,3.33,5.94,4.11,2.43,5.82,4.09a14.47,14.47,0,0,1,1.93,2.41,17.38,17.38,0,0,0-.29-1.78A31.74,31.74,0,0,0,80.25,286c-.09-.21-.2-.42-.31-.64A12.05,12.05,0,0,1,80.11,274Z" style="opacity:0.1"></path><path d="M61.6,257.32v1.86a3.76,3.76,0,0,0,2.19,3.1,11.84,11.84,0,0,0,10.66,0,4.94,4.94,0,0,0,1.65-1.44,2.79,2.79,0,0,0,.56-1.63v-1.89a2.07,2.07,0,0,0-.06-.5,4,4,0,0,0-2.13-2.59l-.11-.06a11.86,11.86,0,0,0-10.55,0,4.07,4.07,0,0,0-2.16,2.56A3.19,3.19,0,0,0,61.6,257.32Z" style="fill:#3AA476"></path><path d="M61.6,257.32v1.86a3.76,3.76,0,0,0,2.19,3.1,11.84,11.84,0,0,0,10.66,0,4.94,4.94,0,0,0,1.65-1.44,2.79,2.79,0,0,0,.56-1.63v-1.89a2.07,2.07,0,0,0-.06-.5,4,4,0,0,0-2.13-2.59l-.11-.06a11.86,11.86,0,0,0-10.55,0,4.07,4.07,0,0,0-2.16,2.56A3.19,3.19,0,0,0,61.6,257.32Z" style="opacity:0.1"></path><path d="M74.45,260.42c3-1.68,3-4.44,0-6.14a11.79,11.79,0,0,0-10.65-.05c-2.94,1.69-3,4.44,0,6.15A11.76,11.76,0,0,0,74.45,260.42Z" style="opacity:0.2"></path><path d="M61.61,255.14v1.12a2.38,2.38,0,0,0,0,.53,4,4,0,0,0,2.14,2.57,10.47,10.47,0,0,0,4.71,1.27,11.11,11.11,0,0,0,5.95-1.23A5.17,5.17,0,0,0,76.12,258a2.81,2.81,0,0,0,.49-1.11,1.85,1.85,0,0,0,.06-.52v-1.15a3.75,3.75,0,0,0-2.19-3.09l-.4-.22a11.86,11.86,0,0,0-10.26.18A3.74,3.74,0,0,0,61.61,255.14Z" style="fill:#3AA476"></path><path d="M61.61,255.14v1.12a2.38,2.38,0,0,0,0,.53,4,4,0,0,0,2.14,2.57,10.47,10.47,0,0,0,4.71,1.27,11.11,11.11,0,0,0,5.95-1.23A5.17,5.17,0,0,0,76.12,258a2.81,2.81,0,0,0,.49-1.11,1.85,1.85,0,0,0,.06-.52v-1.15a3.75,3.75,0,0,0-2.19-3.09l-.4-.22a11.86,11.86,0,0,0-10.26.18A3.74,3.74,0,0,0,61.61,255.14Z" style="opacity:0.1"></path><path d="M61.61,255.1c0,2.4,3.36,4.35,7.52,4.36s7.54-1.91,7.55-4.3-3.36-4.34-7.52-4.36S61.62,252.71,61.61,255.1Z" style="fill:#3AA476"></path><path d="M66.55,250.66v3.9a.65.65,0,0,0,0,.19,1.4,1.4,0,0,0,.74.89,3.72,3.72,0,0,0,1.63.44,3.9,3.9,0,0,0,2.06-.43,1.77,1.77,0,0,0,.57-.5,1,1,0,0,0,.18-.38,1.1,1.1,0,0,0,0-.18v-3.91a1.29,1.29,0,0,0-.76-1.07l-.14-.08a4.13,4.13,0,0,0-3.55.06A1.31,1.31,0,0,0,66.55,250.66Z" style="fill:#3AA476"></path><path d="M66.55,250.66v3.9a.65.65,0,0,0,0,.19,1.4,1.4,0,0,0,.74.89,3.72,3.72,0,0,0,1.63.44,3.9,3.9,0,0,0,2.06-.43,1.77,1.77,0,0,0,.57-.5,1,1,0,0,0,.18-.38,1.1,1.1,0,0,0,0-.18v-3.91a1.29,1.29,0,0,0-.76-1.07l-.14-.08a4.13,4.13,0,0,0-3.55.06A1.31,1.31,0,0,0,66.55,250.66Z" style="opacity:0.1"></path><path d="M66.55,250.65c0,.83,1.16,1.5,2.61,1.51s2.61-.66,2.61-1.49-1.16-1.51-2.6-1.51S66.56,249.82,66.55,250.65Z" style="fill:#3AA476"></path><path d="M68.24,250.66c0,.29.41.53.92.53s.93-.23.93-.53-.41-.53-.93-.53S68.24,250.36,68.24,250.66Z" style="fill:#3AA476;opacity:0.5"></path><path d="M68.24,250.66c0,.29.41.53.92.53s.93-.23.93-.53-.41-.53-.93-.53S68.24,250.36,68.24,250.66Z" style="opacity:0.30000000000000004"></path></g></g><g id="freepik--Character--inject-55"><g id="freepik--character--inject-55"><path d="M194.8,223.28s6.91-56.16,5.34-76.67c-.8-10.51-5.88-12.9-13.66-12.3s-52.28,24.25-52.28,24.25l6.3,15.3,37.07-11.63s-3.77,21.85-4.64,26-2.7,9.74-4.14,14.75c-.71,2.46-1.7,5.67-1.7,7.22C167.09,213.86,194.8,223.28,194.8,223.28Z" style="fill:#ffa8a7"></path><path d="M177.57,162.23c5.15-1,10.31-4,11.93-6.47a11.28,11.28,0,0,1-5.16,6.47,44.18,44.18,0,0,1-7.44,3.86Z" style="fill:#f28f8f"></path><path d="M264.84,222.29c-.78-2.86-5.8-5.87-20.76-8.39s-28.57,0-28.64,1.77,3.69,13.61,20.93,15.76S266.42,228.56,264.84,222.29Z" style="fill:#263238"></path><g id="freepik--character--inject-55"><path d="M219.84,246.6s-9.75-63.25-8.35-76.16c1.45-13.34,6.51-19.53,15-20.4,11.09,6.45,17,21.84,24.09,37s14.78,47.71,15.18,63.26-11.88,26.62-25.82,28.65S219.84,246.6,219.84,246.6Z" style="fill:#ffa8a7"></path><path d="M235.16,197.09a23.9,23.9,0,0,1-8.56-14.43l13.91-4.85,9.41,7.83c.09.2.18.4.28.6l.36.79c.27.57.54,1.18.81,1.81l.24.54.62,1.5.21.52c.27.7.55,1.4.82,2.14v0c.27.73.55,1.48.82,2.25,0,.16.11.33.17.49.24.69.48,1.38.72,2.1,0,.1.07.2.1.31.57,1.69,1.12,3.45,1.67,5.26l.09.29c.26.89.53,1.79.79,2.69v0S244.7,205.07,235.16,197.09Z" style="fill:#f28f8f"></path><path d="M223.59,150.59c5.29-2.1,11.75,2.8,15.16,5,6.92,4.44,49.3,37.46,59.18,45.2,2.14,1.29,4.32,2.54,6.54,3.72l-11.64,18.2a19.82,19.82,0,0,0-4.4-7c-10.56-7.54-31-11.65-44.16-16.77-10.23-4-12.37-6.24-15.83-12.09C225.76,182.26,216.23,154.05,223.59,150.59Z" style="fill:#ffa8a7"></path><path d="M219.62,246.94l-4.18-31.27s3.75,8.63,23.11,10.89,26.78-1,26.29-4.27c0,0,5.06,19.57,3.1,32.3s-21.37,26.26-21.37,26.26Z" style="fill:#37474f"></path><path d="M228.19,251.19c-1.77,0-3.44.11-5,.21l21.52,27.08h5c5.57-4.44,16.77-14.39,18.23-23.89,1.43-9.33-.9-22.33-2.25-28.61C266.46,233.18,250.32,250.76,228.19,251.19Z" style="opacity:0.15"></path><path d="M325.12,178.06c-7-1.3-10.25,3.74-12.84,7.91s-6.9,11.82-8.82,13.12-3,0-5.76,2.07-4.76,6-3.91,7.43l2,3.47a7.43,7.43,0,0,0-6.23,2.35c-3,3-1.44,3.51.25,5.2s5.66,9.38,9.64,11.48c0,0,10.71-3.22,18.49-15.37S325.12,178.06,325.12,178.06Z" style="fill:#3AA476"></path><path d="M301.64,232.7a3,3,0,0,1-2.36-3.75,36.9,36.9,0,0,1,5.29-10.47c2.7-3.81,7.74-11,8.59-14.92s2.68-14.94,5.67-19.55,6.06-7.27,10-5.79-8.5,31-12.15,36S301.64,232.7,301.64,232.7Z" style="fill:#37474f"></path><path d="M303.94,232.06c9.85-5.25,13.1-10.36,16-17s9.71-12.79,11.46-18.76,1.95-21.28-4.82-17.57-8.18,17.4-11.16,25.31S294.28,237.21,303.94,232.06Z" style="fill:#263238"></path><path d="M244.74,248.26c4.51-.68,13.16,1.18,21,12.14,8.43,11.77,10,32.31,4.72,34,0,0-12.27-1.45-20.68-5.85S227.21,254.3,244.74,248.26Z" style="fill:#263238"></path><path d="M388.56,346.22c-13.07-5.13-23.75-13.94-33-23.8-7.43-10.11-39.31-53.36-44.85-59.45-2-2.16-6.73-7.71-13.3-9.11-23.27-4.94-66.33-4.25-66.33-4.25l-16.56-2.79-33,31.06c4.55,4.84,10.27,9.07,18.61,13.43s17.39,7.5,29.56,6.47c24.38-2.06,39-8.95,52.06-12,3.78-.88,7.7-1.69,10.67,4.51s3.21,9.3,12,15.9c11.28,8.46,29.88,17.92,38,28a19.8,19.8,0,0,1,2.34,8c.77,10.62,9.69,8.54,16.88,13.16,3.91,2.51,6.83,5.57,11.55,6.62a29.61,29.61,0,0,0,13-.24c3.83-.92,9.34-3.68,11.22-7.42C399.87,349.34,392.3,347.7,388.56,346.22Z" style="fill:#ffa8a7"></path><path d="M388.56,346.22c-13.07-5.13-23.75-13.94-33-23.8-7.43-10.11-39.31-53.36-44.85-59.45-2-2.16-6.73-7.71-13.3-9.11-23.27-4.94-66.33-4.25-66.33-4.25l-16.56-2.79-33,31.06c4.55,4.84,10.27,9.07,18.61,13.43s17.39,7.5,29.56,6.47c24.38-2.06,39-8.95,52.06-12,3.78-.88,7.7-1.69,10.67,4.51s3.21,9.3,12,15.9c11.28,8.46,29.88,17.92,38,28a19.8,19.8,0,0,1,2.34,8c.77,10.62,9.69,8.54,16.88,13.16,3.91,2.51,6.83,5.57,11.55,6.62a29.61,29.61,0,0,0,13-.24c3.83-.92,9.34-3.68,11.22-7.42C399.87,349.34,392.3,347.7,388.56,346.22Z" style="fill:#ffa8a7"></path><path d="M303.64,301.16a26.53,26.53,0,0,1-5.52-9.49,51.83,51.83,0,0,0-3.45-8.5c-4.06-7-31,1.93-42.93,5.59-.67,1-3.46,4-4.47,6.49,14.46-2.94,24.86-7.24,34.43-9.47,3.78-.88,7.7-1.69,10.67,4.51s3.21,9.3,12,15.9c4.58,3.43,10.38,7,16.19,10.78C314.06,311.94,309.16,306.89,303.64,301.16Z" style="fill:#f28f8f"></path><path d="M217.05,246.82s23.68,1.15,27.69,1.44c0,0-8.9,2.41,1.94,24.31s23.79,21.8,23.79,21.8c-17,5.43-25.83,11.54-47.5,9-25.83-3.73-41.5-23.07-41.5-23.07Z" style="fill:#455a64"></path><path d="M270.4,294.37h0l-.59-.05h0c-1.93-.23-7.66-1.48-14.1-8.33h0a136.58,136.58,0,0,1-15.47,3.25c-19.31,2.83-33.81-.57-55.39-12.08l-3.34,3.13a72.56,72.56,0,0,0,31.85,20.86h0c.75.24,1.51.46,2.29.68h0c.73.2,1.46.38,2.21.56l.19.05c.69.16,1.39.3,2.09.43l.37.08c.81.15,1.64.29,2.48.41,1.35.16,2.66.29,3.92.38s2.47.16,3.64.19l1.74,0h1.67c1.65,0,3.22-.13,4.73-.28,1-.1,2-.22,3-.37a61.86,61.86,0,0,0,6.85-1.44c.88-.24,1.75-.49,2.62-.75,2.17-.66,4.31-1.41,6.51-2.2l2.67-1c3.15-1.16,6.48-2.38,10.2-3.57Z" style="opacity:0.15"></path><path d="M137.91,217c-9.62,3.35-18.72,9.18-11.06,26.28,11.06,24.67,60.86,52.08,86.47,57.9-13-19.67-2.18-40.52,6.3-54.22l-2.23-16.7s-7.69-3.69-20.41-13.53S179,204.22,160.05,210C147.05,213.92,137.91,217,137.91,217Z" style="fill:#3AA476"></path><path d="M176.87,272.76c-26.18-15-34.41-28.36-44.68-41.19l-6.72,8.21h0q.27.79.6,1.62l0,.09c.23.58.47,1.16.74,1.77,4.84,10.79,17.09,22.11,31.49,31.92q3.09,2.1,6.29,4.1c1.07.67,2.14,1.32,3.21,2a216.69,216.69,0,0,0,22.72,11.88,128.85,128.85,0,0,0,22.76,8,35.45,35.45,0,0,1-5.58-14.06C198.61,284.33,188.86,279.64,176.87,272.76Z" style="opacity:0.05"></path><path d="M130.68,220.33s-32.29-17.26-37.4-19.58l28.22-16.59-6-15.57s-42,14.93-50,19.22c-4.19,2.26-6,4.14-6,7.36,0,5.36,5.11,12.33,12.18,18.36,15.06,12.83,35.48,24.77,55.36,35.73,4.56,3.38,9.31,7.63,9.31,7.63C141.63,259.48,149.23,235.29,130.68,220.33Z" style="fill:#ffa8a7"></path><path d="M160.91,160.35a19.22,19.22,0,1,0-35.31,15.21c.14.31.3.61.45.91l-4.89,10.62L114,173.8a4.24,4.24,0,0,0-3.8-4.22,3.92,3.92,0,0,0-4.24,3.77l5.51.47a7,7,0,0,0-2.64,3.32c-1.32,3.42,3.24,10.39,9.36,16.51,0,0,8.65,12.21,10.74,13.93a6.65,6.65,0,0,0,4.74,1.32l.52-24a19.21,19.21,0,0,0,26.76-24.52Z" style="fill:#263238"></path><path d="M125.42,191.26c-.8,1.11-3.24-.3-5.17-1.12s-7.11-.86-7.31,4.65,6.58,10,10.47,9.59c6.7-.69,6-4.85,6-4.85l9.89,21.75h0c11.39,6.25,32.59-3.57,19.87-9.74l-2.81-6.48a33.58,33.58,0,0,0,7-2.76c4-2.54,5.3-7.14,4.6-12.41-1.14-8.46-3-14.9-11.15-29-9-15.42-28-7.44-35.41,3.4S125.42,191.26,125.42,191.26Z" style="fill:#ffa8a7"></path><path d="M126.2,193.08c-.54.24-4.08-2.3-6-2.94-2.6-.9-6.81-17.29-6.81-17.29s-3.43-3-1.55-8.54c1.56-4.52,7.28-7.53,11.24-9.53,7.14-3.61,15.12-7.73,18.63-15.29.27-.59.68-1.28,1.33-1.29a1.63,1.63,0,0,1,1.07.57,10.4,10.4,0,0,1,2.62,6.7c0,.24.07.52.29.59s.41-.12.54-.28a9,9,0,0,0,1.63-3c.49-1.49,3,2.3,3.19,2.82a13.11,13.11,0,0,1-.56,10.17c-1.56,3.12-4.78,5.07-7.71,6.78-6.55,3.82-17.75,7.45-19.31,7.89-2.12.59-1.72,2.71-.51,8.49C125.4,184,128,192.25,126.2,193.08Z" style="fill:#263238"></path><path d="M156.31,205.06s-11.7,2.48-15.87,2.14a12.23,12.23,0,0,1-6.68-2.62,16.74,16.74,0,0,0,5,4.32c3.84,2.1,18.64-1.26,18.64-1.26Z" style="fill:#f28f8f"></path><path d="M138,174.62l-3.51,3.79a2.71,2.71,0,0,1-.13-3.75A2.51,2.51,0,0,1,138,174.62Z" style="fill:#263238"></path><path d="M149.23,194l5.15-.25a2.53,2.53,0,0,1-2.38,2.77A2.7,2.7,0,0,1,149.23,194Z" style="fill:#f28f8f"></path><path d="M159.21,168.59l-5-1.29a2.49,2.49,0,0,1,3.07-1.92A2.73,2.73,0,0,1,159.21,168.59Z" style="fill:#263238"></path><polygon points="148.54 176.42 151.95 188.69 157.94 185.05 148.54 176.42" style="fill:#f28f8f"></polygon><path d="M139,181.91a2.25,2.25,0,1,0,2.25-2.24A2.25,2.25,0,0,0,139,181.91Z" style="fill:#263238"></path><path d="M155.26,175.57a2.16,2.16,0,1,0,2.16-2.16A2.16,2.16,0,0,0,155.26,175.57Z" style="fill:#263238"></path><path d="M343.43,344.42c-.85.58.46,4.25,1.23,5.14a12.8,12.8,0,0,0,5.75,3.24,33.61,33.61,0,0,1,10.86,5.68,35.43,35.43,0,0,0,13.59,6.84c5.91,1.31,12.72-.37,18.68-3.89,6.24-3.7,5.66-7.23,4.8-9.6Z" style="fill:#37474f"></path><path d="M356.93,323.88c2,2.13,12.88,12.88,21.23,15.63,6.64,2.18,15.3,4.25,19.08,8.31,3.94,4.22-1.92,9.62-10,12.71-8.42,3.23-14.14.62-19.73-2.18-3.93-2-9.72-6-12.63-7.61s-8.3-2.5-10.55-4.89c-1.24-1.31-2.13-5-2.67-8.22-.49-3-2.47-5.72-1.46-5.88l1.63,1.79C349.45,335,357.37,327.93,356.93,323.88Z" style="fill:#3AA476"></path></g><path d="M93.28,200.75A51,51,0,0,1,78,206.09s8.48,2.17,18.62-3.72Z" style="fill:#f28f8f"></path></g></g></svg>