<svg xmlns="http://www.w3.org/2000/svg" viewBox="0 0 500 500"><g id="freepik--background-complete--inject-59"><rect y="382.4" width="500" height="0.25" style="fill:#ebebeb"></rect><rect x="52.46" y="391.92" width="16.06" height="0.25" style="fill:#ebebeb"></rect><rect x="171.14" y="389.21" width="53.53" height="0.25" style="fill:#ebebeb"></rect><rect x="69.52" y="401.21" width="36.25" height="0.25" style="fill:#ebebeb"></rect><rect x="379.14" y="389.08" width="43.19" height="0.25" style="fill:#ebebeb"></rect><rect x="431.24" y="389.08" width="6.33" height="0.25" style="fill:#ebebeb"></rect><rect x="317" y="395.31" width="53.89" height="0.25" style="fill:#ebebeb"></rect><path d="M237,337.8H43.91a5.71,5.71,0,0,1-5.7-5.71V60.66A5.71,5.71,0,0,1,43.91,55H237a5.71,5.71,0,0,1,5.71,5.71V332.09A5.71,5.71,0,0,1,237,337.8ZM43.91,55.2a5.46,5.46,0,0,0-5.45,5.46V332.09a5.46,5.46,0,0,0,5.45,5.46H237a5.47,5.47,0,0,0,5.46-5.46V60.66A5.47,5.47,0,0,0,237,55.2Z" style="fill:#ebebeb"></path><path d="M453.31,337.8H260.21a5.72,5.72,0,0,1-5.71-5.71V60.66A5.72,5.72,0,0,1,260.21,55h193.1A5.71,5.71,0,0,1,459,60.66V332.09A5.71,5.71,0,0,1,453.31,337.8ZM260.21,55.2a5.47,5.47,0,0,0-5.46,5.46V332.09a5.47,5.47,0,0,0,5.46,5.46h193.1a5.47,5.47,0,0,0,5.46-5.46V60.66a5.47,5.47,0,0,0-5.46-5.46Z" style="fill:#ebebeb"></path><path d="M446.92,319.88A99.14,99.14,0,0,0,419,333.46c4.39-26.52-9.13-47.41-9.13-47.41S391.55,302.58,382,324.9a56.42,56.42,0,0,0-9.56-9,88.48,88.48,0,0,0,2.48-13.38,126.48,126.48,0,0,0-35.67,17.34c5.6-33.87-11.67-60.55-11.67-60.55S304.22,280.45,292,309a68.38,68.38,0,0,0-15.81-13.9S263.89,316,262.71,338.67A83.17,83.17,0,0,0,237.83,337s.49,27,18.28,41.7a41.42,41.42,0,0,0,5.37,3.75H424.1a84.2,84.2,0,0,0,20.83-19.89,53,53,0,0,0-14.33-2.21C445.14,341.78,446.92,319.88,446.92,319.88Z" style="fill:#e6e6e6"></path><path d="M288.86,311.46a112.39,112.39,0,0,0-31.7,15.4c5-30.09-10.36-53.79-10.36-53.79S226,291.83,215.21,317.16A64.4,64.4,0,0,0,204.36,307a101.72,101.72,0,0,0,2.82-15.18,143.47,143.47,0,0,0-40.49,19.68c6.36-38.43-13.23-68.71-13.23-68.71s-26.53,24-40.35,56.31a77.6,77.6,0,0,0-17.94-15.78s-14,23.73-15.33,49.49a94.42,94.42,0,0,0-28.23-2s.55,30.62,20.74,47.32a47.29,47.29,0,0,0,6.09,4.26H263a95.42,95.42,0,0,0,23.64-22.57,60.29,60.29,0,0,0-16.27-2.51C286.84,336.31,288.86,311.46,288.86,311.46Z" style="fill:#f5f5f5"></path><circle cx="126.71" cy="108.38" r="20.93" transform="translate(-39.52 121.34) rotate(-45)" style="fill:#f5f5f5"></circle><path d="M108.05,194.39a56.48,56.48,0,0,1,30.55-9.58c13.85,0,21.33,6.54,18.21,15.14a31.85,31.85,0,0,1,8.1-1.1c9.44,0,14,5,10.26,11.09a15.85,15.85,0,0,1-1.24,1.69h-93a10.26,10.26,0,0,1,1.52-4C86.58,200.94,97.56,195.4,108.05,194.39Z" style="fill:#ebebeb"></path><path d="M309.32,159.38a41.78,41.78,0,0,1,22.63-7.1c10.26,0,15.8,4.85,13.49,11.21a23.87,23.87,0,0,1,6-.81c7,0,10.4,3.68,7.6,8.22a10.25,10.25,0,0,1-.92,1.25h-68.9a7.64,7.64,0,0,1,1.13-3C293.41,164.23,301.54,160.12,309.32,159.38Z" style="fill:#f5f5f5"></path><path d="M115.56,154.58c-.69-3.33-4.71-5.6-10.94-5.6-8.1,0-17.18,3.82-21.55,8.84a11,11,0,0,0-3.94-.64c-5.52,0-11.78,2.91-14,6.48a6.57,6.57,0,0,0-.5,1H119a10.68,10.68,0,0,0,2-2.34C123.38,158.4,121,155.17,115.56,154.58Z" style="fill:#f5f5f5"></path><path d="M426.81,195c-.44-2.12-3-3.57-7-3.57-5.16,0-10.95,2.44-13.73,5.64a7,7,0,0,0-2.51-.41c-3.52,0-7.51,1.85-8.92,4.13a3.33,3.33,0,0,0-.31.63H429a6.62,6.62,0,0,0,1.26-1.49C431.8,197.39,430.26,195.32,426.81,195Z" style="fill:#f5f5f5"></path><path d="M335.83,96.76q1,0,1.95.09a42,42,0,0,1,24.11-8.06,25.7,25.7,0,0,1,6.13.68,56.87,56.87,0,0,1,31.63-10.21c13.56,0,21.08,6.19,18.72,14.46,7.18,1.06,10.3,5.58,7,11a14,14,0,0,1-1.26,1.72h-109l0-.07C318.41,101.06,327.68,96.76,335.83,96.76Z" style="fill:#ebebeb"></path></g><g id="freepik--Shadow--inject-59"><ellipse id="freepik--path--inject-59" cx="250" cy="416.24" rx="193.89" ry="11.32" style="fill:#f5f5f5"></ellipse></g><g id="freepik--Character--inject-59"><polygon points="234.52 332.59 243.03 333.3 249.61 313.9 241.11 313.2 234.52 332.59" style="fill:#ff8b7b"></polygon><path d="M243.75,331.5l-9.35-.18a.76.76,0,0,0-.74.57l-1.83,7.58A1.24,1.24,0,0,0,233,341c3.37,0,8.25-.09,12.48,0,5,.09,6.51.44,12.32.56,3.52.06,4.56-3.47,3.09-3.82-6.66-1.59-9.41-1.85-15.12-5.53A4,4,0,0,0,243.75,331.5Z" style="fill:#263238"></path><polygon points="249.61 313.91 246.22 323.91 237.71 323.2 241.1 313.2 249.61 313.91" style="opacity:0.2"></polygon><path d="M268.33,264.22c-2.21-16.22-34.14-33.05-34.14-33.05l-29.36-6.59s-11.19,2.59-6.93,14.92,34.86,19.5,49.81,31.39C246,291.1,237,317.22,237,317.22l12.36,2.84S271.11,284.56,268.33,264.22Z" style="fill:#1D9C62"></path><path d="M268.33,264.22c-2.21-16.22-34.14-33.05-34.14-33.05l-29.36-6.59s-11.19,2.59-6.93,14.92,34.86,19.5,49.81,31.39C246,291.1,237,317.22,237,317.22l12.36,2.84S271.11,284.56,268.33,264.22Z" style="fill:#fff;opacity:0.30000000000000004"></path><polygon points="251.2 322.72 234.15 320 235.03 314.49 253.17 317.1 251.2 322.72" style="fill:#1D9C62"></polygon><path d="M244.57,332.7a.21.21,0,0,1-.13-.16.2.2,0,0,1,.11-.21c.39-.19,3.86-1.87,4.89-1.27a.64.64,0,0,1,.33.54h0a1.13,1.13,0,0,1-.4,1c-1,.81-3.4.43-4.78.13Zm4.59-1.33c-.64-.23-2.51.44-3.88,1.06,1.88.35,3.29.3,3.82-.16a.72.72,0,0,0,.26-.64.22.22,0,0,0-.12-.22A.2.2,0,0,0,249.16,331.37Z" style="fill:#1D9C62"></path><path d="M244.57,332.7s0,0,0,0a.18.18,0,0,1-.08-.18c0-.1.28-2.4,1.39-3.27a1.47,1.47,0,0,1,1.13-.33h0c.55.07.71.35.74.58.14,1-1.94,2.78-3,3.23A.2.2,0,0,1,244.57,332.7Zm2.55-3.36a.93.93,0,0,0-.21,0h0a1.1,1.1,0,0,0-.83.25,4.69,4.69,0,0,0-1.18,2.61c1.07-.61,2.48-2,2.4-2.62C247.3,329.49,247.28,329.4,247.12,329.34Zm-.19-.25h0Z" style="fill:#1D9C62"></path><path d="M221.9,246.26v10.57c8.21,3.86,16.95,7.76,23.5,12.34C241.57,260.67,228.79,248.23,221.9,246.26Z" style="opacity:0.2"></path><path d="M154.28,296.78a55.73,55.73,0,1,1-55.73,55.73,55.79,55.79,0,0,1,55.73-55.73m0-8A63.73,63.73,0,1,0,218,352.51a63.73,63.73,0,0,0-63.73-63.73Z" style="fill:#263238"></path><path d="M154.28,299.16a53.35,53.35,0,1,1-53.34,53.35,53.4,53.4,0,0,1,53.34-53.35m0-7.65a61,61,0,1,0,61,61,61,61,0,0,0-61-61Z" style="fill:#1D9C62"></path><path d="M345.72,296.78A55.73,55.73,0,1,1,290,352.51a55.79,55.79,0,0,1,55.73-55.73m0-8a63.73,63.73,0,1,0,63.73,63.73,63.73,63.73,0,0,0-63.73-63.73Z" style="fill:#263238"></path><path d="M345.72,299.16a53.35,53.35,0,1,1-53.34,53.35,53.4,53.4,0,0,1,53.34-53.35m0-7.65a61,61,0,1,0,61,61,61,61,0,0,0-61-61Z" style="fill:#1D9C62"></path><path d="M239.51,364.78a9.84,9.84,0,1,1-9.84,9.84,9.85,9.85,0,0,1,9.84-9.84m0-5a14.84,14.84,0,1,0,14.84,14.84,14.83,14.83,0,0,0-14.84-14.84Z" style="fill:#263238"></path><circle cx="154.28" cy="352.51" r="9.83" style="fill:#263238"></circle><circle cx="345.72" cy="352.51" r="9.83" style="fill:#263238"></circle><path d="M154.27,345.67h0a6.89,6.89,0,0,1,1.85.26l.11,0,.11,0,86.17,17.18a11.84,11.84,0,0,1-3,23.3,12,12,0,0,1-2.86-.35l-84.11-27-.05,0h-.06a6.84,6.84,0,0,1,1.83-13.42m0-3A9.84,9.84,0,0,0,151.64,362l84.2,27a15,15,0,0,0,3.68.46,14.84,14.84,0,0,0,3.65-29.22L156.92,343a9.68,9.68,0,0,0-2.65-.37Z" style="fill:#263238"></path><path d="M239.51,377.62a3.11,3.11,0,0,1-.43,0,3,3,0,0,1-2.34-1.8L183.35,249.31a3,3,0,1,1,5.53-2.33l51.45,121.88,82-100.34a3,3,0,0,1,4.64,3.8l-85.11,104.2A3,3,0,0,1,239.51,377.62Z" style="fill:#263238"></path><path d="M154.28,354.51a2,2,0,0,1-1.81-2.86l40.13-84.72a2,2,0,1,1,3.61,1.71l-40.12,84.72A2,2,0,0,1,154.28,354.51Z" style="fill:#263238"></path><path d="M345.72,355.51a3,3,0,0,1-2.91-2.26l-24.08-93.7L194.67,270.77a3,3,0,0,1-.54-6l126.6-11.45a3,3,0,0,1,3.18,2.24l24.72,96.17a3,3,0,0,1-2.16,3.65A2.76,2.76,0,0,1,345.72,355.51Z" style="fill:#263238"></path><path d="M321,259.33a3,3,0,0,1-3-2.57L314.43,232a3,3,0,0,1,5.94-.87L324,255.9a3,3,0,0,1-2.54,3.4A3.11,3.11,0,0,1,321,259.33Z" style="fill:#263238"></path><path d="M307.06,241.68a2.93,2.93,0,0,1-1.48-5.45l18.76-11a2.92,2.92,0,0,1,3,5.05l-18.75,11A3,3,0,0,1,307.06,241.68Z" style="fill:#1D9C62"></path><path d="M165.33,247.67c5.23,6.66,27.36-.78,34.07-3s22,2.22,19.71-3-35.88-3.17-40.55-5C168.67,232.78,156.37,236.22,165.33,247.67Z" style="fill:#1D9C62"></path><path d="M230.67,408.5a2,2,0,0,1-1.93-2.53l17.68-63.77a2,2,0,0,1,3.85,1.07L232.59,407A2,2,0,0,1,230.67,408.5Z" style="fill:#263238"></path><path d="M253.31,344.74H235.64a2,2,0,0,1,0-4h17.67a2,2,0,0,1,0,4Z" style="fill:#263238"></path><path d="M243.37,408.5H225.71a2,2,0,0,1,0-4h17.66a2,2,0,0,1,0,4Z" style="fill:#263238"></path><polygon points="223.41 397.76 231.96 397.07 232.01 377.22 223.47 377.9 223.41 397.76" style="fill:#ff8b7b"></polygon><path d="M233.36,395.13l-10.43.11a.75.75,0,0,0-.72.59l-1.61,7.63a1.26,1.26,0,0,0,1.27,1.51c3.35-.1,5.8-.32,10-.36,2.6,0,10.44.16,14,.12s4-3.59,2.55-3.9c-6.61-1.37-11.6-3.31-13.73-5.18A2.09,2.09,0,0,0,233.36,395.13Z" style="fill:#263238"></path><path d="M260.45,170.07c3.28,5.82,6.72,11.78,10.21,17.54a178.74,178.74,0,0,0,11,16.54c3.41,4.53,8.68,8.26,14.34,11.62,2.82,1.68,5.77,3.24,8.78,4.74,1.51.74,3,1.5,4.55,2.2l4.58,2-1.79,6.17a101.7,101.7,0,0,1-20.57-6.4,73,73,0,0,1-9.84-5.17A52.55,52.55,0,0,1,277,216c-.77-.62-1.52-1.31-2.26-2l-1.1-1.12c-.36-.37-.63-.7-1-1.06a101.16,101.16,0,0,1-6.87-8.51c-2.15-2.88-4.14-5.82-6.07-8.79-3.88-6-7.41-12-10.75-18.27Z" style="fill:#ff8b7b"></path><path d="M248.09,181.33a31.87,31.87,0,0,0,7.9,17.94l16.76-12.69s-3.67-12.31-10.36-19C249.86,155.16,247.18,171.59,248.09,181.33Z" style="fill:#1D9C62"></path><path d="M253,179.58l-5,1.2c0,.19,0,.37,0,.55a31.43,31.43,0,0,0,4,12.42C254.17,189.89,254,182.86,253,179.58Z" style="opacity:0.2"></path><polygon points="223.47 377.91 232.01 377.23 231.98 387.46 223.43 388.14 223.47 377.91" style="opacity:0.2"></polygon><path d="M211.49,157.48c-4.33,30.88-20.81,57.2-22,63.66,6.54,1.49,31.21,7,44.66,10,16.08-25.95,24-66.66,24-66.66s-2.55-1.56-6.15-3.33c-1.13-.55-2.36-1.12-3.65-1.68q-1.08-.47-2.19-.9a167.9,167.9,0,0,0-18.71-5.38c-1.19-.28-2.41-.54-3.61-.77s-2.2-.4-3.23-.56l-1.44-.22A6.78,6.78,0,0,0,211.49,157.48Z" style="fill:#1D9C62"></path><path d="M215.39,169.89c-1,3.88-6.44,10.91-10.8,15.07,1.67-4.77,3.23-9.84,4.51-15.13Z" style="fill:#1D9C62"></path><path d="M215.39,169.89c-1,3.88-6.44,10.91-10.8,15.07,1.67-4.77,3.23-9.84,4.51-15.13Z" style="opacity:0.2"></path><path d="M311.25,224.5l11-.25-.82,6.85s-6.35,3.07-11.27-1.2Z" style="fill:#ff8b7b"></path><polygon points="326.83 226.25 323.86 232.17 321.45 231.1 322.27 224.25 326.83 226.25" style="fill:#ff8b7b"></polygon><path d="M226.07,128c-1.44,6.71,3.62,13,12.7,12S228.32,117.46,226.07,128Z" style="fill:#263238"></path><path d="M235.39,132.69c-.55,6.36-2.55,17.72-7.91,20.53,2.33,4.19,5.53,9.17,12.6,11.48s7.24-3,6.1-6.1c-6.25-3.54-4.65-8.46-2.13-12.8Z" style="fill:#ff8b7b"></path><path d="M238.92,138l5.12,7.75a19.84,19.84,0,0,0-1.53,3.15,9.51,9.51,0,0,1-5.24-7.29C237.14,139.72,238.2,138.05,238.92,138Z" style="opacity:0.2"></path><path d="M253.28,116.79c4.38.06,3.54,8.75,1,10.88S248.5,116.73,253.28,116.79Z" style="fill:#263238"></path><path d="M232.11,124.46c.14,8.5-.2,13.47,3.88,18,6.15,6.82,16.78,3.4,19.17-5,2.15-7.53,1.55-20.15-6.59-23.89A11.58,11.58,0,0,0,232.11,124.46Z" style="fill:#ff8b7b"></path><path d="M231.58,130.75c4.34-3.5,6.92-7.85,5.51-11.42,4.49,1.67,20.6,2.09,19.13-4.75S244,106.42,244,106.42s2.44,1.61,2.32,2.86c-5.53-2-12-2.11-14.26-1.61,1.62,1.11,1.78,1.87,1.78,1.87s-10.25.63-8,4C221.83,113.39,219,127.78,231.58,130.75Z" style="fill:#263238"></path><path d="M228.19,133a8.06,8.06,0,0,0,4.87,3.78c2.74.73,4.07-1.72,3.28-4.29-.71-2.31-3-5.47-5.72-5.06S226.92,130.75,228.19,133Z" style="fill:#ff8b7b"></path><path d="M218.27,227.56S239.6,279.39,238,304.42c-1.73,27.41-2.35,78.8-2.35,78.8l-14.82,1.17s-5.95-49.1-4.52-75.83c1.64-30.46-39.19-65.46-26.8-87.41C203.54,224.08,218.27,227.56,218.27,227.56Z" style="fill:#1D9C62"></path><path d="M218.27,227.56S239.6,279.39,238,304.42c-1.73,27.41-2.35,78.8-2.35,78.8l-14.82,1.17s-5.95-49.1-4.52-75.83c1.64-30.46-39.19-65.46-26.8-87.41C203.54,224.08,218.27,227.56,218.27,227.56Z" style="fill:#fff;opacity:0.30000000000000004"></path><polygon points="236.92 384.85 218.55 386.66 218.01 381.18 237.71 378.89 236.92 384.85" style="fill:#1D9C62"></polygon><path d="M244.85,127.4c0,.69.31,1.26.76,1.28s.84-.52.87-1.21-.31-1.27-.76-1.29S244.88,126.71,244.85,127.4Z" style="fill:#263238"></path><path d="M252.64,127.74c0,.69.31,1.26.76,1.28s.85-.52.88-1.21-.31-1.26-.77-1.28S252.67,127.05,252.64,127.74Z" style="fill:#263238"></path><path d="M250.15,128a24.77,24.77,0,0,0,3,6.05c-1.27,1.08-3.32.47-3.32.47Z" style="fill:#ff5652"></path><path d="M246.87,136.21a5.72,5.72,0,0,1-3.79-2.43.2.2,0,1,1,.35-.21,5.47,5.47,0,0,0,4.36,2.33.2.2,0,0,1,.19.21.21.21,0,0,1-.21.2A8.25,8.25,0,0,1,246.87,136.21Z" style="fill:#263238"></path><path d="M242.56,124.77a.46.46,0,0,1-.19-.08.4.4,0,0,1-.05-.57,4,4,0,0,1,3.37-1.53.4.4,0,0,1,.35.45.4.4,0,0,1-.44.36h0a3.18,3.18,0,0,0-2.66,1.23A.38.38,0,0,1,242.56,124.77Z" style="fill:#263238"></path><path d="M256.12,125.21a.43.43,0,0,1-.3-.24,3.21,3.21,0,0,0-2.2-1.93.41.41,0,0,1-.33-.47.4.4,0,0,1,.46-.33,4,4,0,0,1,2.81,2.41.4.4,0,0,1-.21.53A.45.45,0,0,1,256.12,125.21Z" style="fill:#263238"></path><path d="M236.21,396.6a10.37,10.37,0,0,1-2.24-.28.23.23,0,0,1-.16-.17.21.21,0,0,1,.09-.2c.31-.2,3.06-1.92,4-1.45a.64.64,0,0,1,.35.57,1.23,1.23,0,0,1-.41,1.08A2.59,2.59,0,0,1,236.21,396.6Zm-1.66-.57c1.46.27,2.58.21,3-.19a.86.86,0,0,0,.27-.74.26.26,0,0,0-.13-.24C237.23,394.62,235.67,395.36,234.55,396Z" style="fill:#1D9C62"></path><path d="M234,396.32l-.12,0a.22.22,0,0,1-.09-.19c0-.1.19-2.57,1.17-3.39a1.08,1.08,0,0,1,.86-.27h0a.65.65,0,0,1,.65.52c.2,1-1.5,2.85-2.38,3.34Zm1.69-3.49a.8.8,0,0,0-.47.19,4.85,4.85,0,0,0-1,2.69c.87-.68,2-2.11,1.84-2.67,0-.05,0-.17-.3-.2h-.09Z" style="fill:#1D9C62"></path><path d="M222,165.62c-.88.42-1.6.75-2.4,1.1s-1.55.66-2.33,1c-1.57.63-3.13,1.23-4.71,1.81-3.15,1.16-6.36,2.17-9.63,3.06a85.39,85.39,0,0,1-20.43,3.19,51.8,51.8,0,0,1-5.41-.17c-.92-.09-1.83-.17-2.76-.33l-.69-.1-.35,0-.28-.05-.36-.08a9,9,0,0,1-3.07-1.31,8.5,8.5,0,0,1-2.53-2.65,9,9,0,0,1-1.1-2.79,12.82,12.82,0,0,1-.16-4.16,24.74,24.74,0,0,1,1.51-5.83A57.82,57.82,0,0,1,172,149c.86-1.44,1.76-2.85,2.72-4.21s1.89-2.7,3-4.05l5.52,3.28-1.71,4.37-1.62,4.38a73.94,73.94,0,0,0-2.58,8.55,17,17,0,0,0-.45,3.58c0,.43.11.76.14.62a1.12,1.12,0,0,0-.18-.57,3,3,0,0,0-.86-.94,3.27,3.27,0,0,0-.85-.43l-.07,0h0l.25,0,.51,0c.66.07,1.35.08,2,.11,1.38,0,2.78,0,4.21-.13a62.75,62.75,0,0,0,8.66-1.25c2.92-.59,5.84-1.35,8.75-2.22s5.81-1.84,8.69-2.87c1.44-.52,2.87-1.06,4.29-1.63l2.11-.86,2-.85Z" style="fill:#ff8b7b"></path><path d="M222.17,168.49c-5.58,6-22.5,10.06-22.5,10.06L193,159.23s11.07-6.63,21.6-7.56C230.74,150.24,227.93,162.3,222.17,168.49Z" style="fill:#1D9C62"></path><path d="M183.09,144.52l4.29-7.55L176.49,136s-2.22,7.24,1.48,8.85Z" style="fill:#ff8b7b"></path><polygon points="185.49 128.52 177.33 129.53 176.49 136.03 187.38 136.97 185.49 128.52" style="fill:#ff8b7b"></polygon></g></svg>